<svg width="40" height="40" viewBox="0 0 40 40" fill="none" xmlns="http://www.w3.org/2000/svg">
<path d="M25.983 33.2H15.0214M25.983 33.2V35.6C25.983 36.2365 25.752 36.847 25.3409 37.2971C24.9298 37.7471 24.3721 38 23.7907 38H17.2137C16.6323 38 16.0746 37.7471 15.6635 37.2971C15.2523 36.847 15.0214 36.2365 15.0214 35.6V33.2M25.983 33.2L29.9745 4.7648C30.0226 4.42288 30.0025 4.07363 29.9157 3.74099C29.829 3.40835 29.6775 3.10017 29.4718 2.83758C29.2661 2.57499 29.0109 2.36418 28.7238 2.21962C28.4368 2.07505 28.1245 2.00013 27.8085 2H13.193C12.8768 1.9999 12.5644 2.07465 12.2772 2.21912C11.9899 2.36358 11.7346 2.57435 11.5287 2.83697C11.3228 3.09959 11.1712 3.40785 11.0844 3.74061C10.9975 4.07336 10.9774 4.42275 11.0255 4.7648L15.0214 33.2" stroke="white" stroke-linecap="round" stroke-linejoin="round"/>
</svg>
