<svg width="40" height="40" viewBox="0 0 40 40" fill="none" xmlns="http://www.w3.org/2000/svg">
<path d="M33.3333 3.33325C33.3333 3.33325 30 11.1466 30 17.6183C30 19.6916 30.71 21.4249 31.6667 23.1516C32.7667 25.1399 34.195 27.1183 35.2433 29.5899C36.075 31.5533 36.6667 33.8283 36.6667 36.6666M6.66667 3.33325C6.66667 3.33325 10 11.1466 10 17.6183C10 19.6916 9.29001 21.4249 8.33334 23.1516C7.23334 25.1399 5.80501 27.1183 4.75667 29.5899C3.80047 31.8258 3.31592 34.2349 3.33334 36.6666" stroke="white" stroke-linecap="round" stroke-linejoin="round"/>
<path d="M10 21.6665H30M35 29.1665C25 29.1665 20.8333 34.1665 20 36.6665C19.1667 34.1665 15 29.1665 5 29.1665" stroke="white" stroke-linecap="round"/>
</svg>
