<svg width="40" height="40" viewBox="0 0 40 40" fill="none" xmlns="http://www.w3.org/2000/svg">
<path d="M20 5.6251C17.1569 5.6251 14.3776 6.46818 12.0137 8.04773C9.64972 9.62727 7.80724 11.8723 6.71923 14.499C5.63122 17.1257 5.34655 20.016 5.90121 22.8045C6.45587 25.593 7.82496 28.1544 9.83534 30.1648C11.8457 32.1751 14.4071 33.5442 17.1956 34.0989C19.984 34.6536 22.8744 34.3689 25.5011 33.2809C28.1278 32.1929 30.3728 30.3504 31.9524 27.9864C33.5319 25.6225 34.375 22.8432 34.375 20.0001C34.3709 16.1889 32.855 12.535 30.1601 9.84001C27.4651 7.14507 23.8112 5.62924 20 5.6251ZM20 33.1251C17.4041 33.1251 14.8665 32.3553 12.7081 30.9131C10.5497 29.4709 8.86748 27.4211 7.87408 25.0228C6.88068 22.6245 6.62076 19.9855 7.12719 17.4395C7.63362 14.8935 8.88366 12.5549 10.7192 10.7193C12.5548 8.88376 14.8934 7.63373 17.4394 7.1273C19.9854 6.62087 22.6244 6.88078 25.0227 7.87418C27.421 8.86758 29.4708 10.5498 30.913 12.7082C32.3552 14.8666 33.125 17.4042 33.125 20.0001C33.1213 23.4799 31.7373 26.8162 29.2767 29.2768C26.8161 31.7374 23.4798 33.1214 20 33.1251ZM9.19218 4.19229L4.19218 9.19229C4.07491 9.30957 3.91585 9.37545 3.75 9.37545C3.58414 9.37545 3.42508 9.30957 3.30781 9.19229C3.19053 9.07502 3.12465 8.91596 3.12465 8.7501C3.12465 8.58425 3.19053 8.42519 3.30781 8.30792L8.30781 3.30792C8.42508 3.19064 8.58414 3.12476 8.75 3.12476C8.91585 3.12476 9.07491 3.19064 9.19218 3.30792C9.30946 3.42519 9.37534 3.58425 9.37534 3.7501C9.37534 3.91596 9.30946 4.07502 9.19218 4.19229ZM36.6922 9.19229C36.6341 9.2504 36.5652 9.2965 36.4893 9.32795C36.4135 9.35941 36.3321 9.3756 36.25 9.3756C36.1679 9.3756 36.0865 9.35941 36.0107 9.32795C35.9348 9.2965 35.8659 9.2504 35.8078 9.19229L30.8078 4.19229C30.6905 4.07502 30.6246 3.91596 30.6246 3.7501C30.6246 3.58425 30.6905 3.42519 30.8078 3.30792C30.9251 3.19064 31.0841 3.12476 31.25 3.12476C31.4158 3.12476 31.5749 3.19064 31.6922 3.30792L36.6922 8.30792C36.7503 8.36596 36.7964 8.43489 36.8278 8.51077C36.8593 8.58664 36.8755 8.66797 36.8755 8.7501C36.8755 8.83224 36.8593 8.91357 36.8278 8.98944C36.7964 9.06531 36.7503 9.13425 36.6922 9.19229ZM29.375 20.0001C29.375 20.1659 29.3091 20.3248 29.1919 20.442C29.0747 20.5593 28.9158 20.6251 28.75 20.6251H20C19.8342 20.6251 19.6753 20.5593 19.5581 20.442C19.4408 20.3248 19.375 20.1659 19.375 20.0001V11.2501C19.375 11.0843 19.4408 10.9254 19.5581 10.8082C19.6753 10.691 19.8342 10.6251 20 10.6251C20.1658 10.6251 20.3247 10.691 20.4419 10.8082C20.5591 10.9254 20.625 11.0843 20.625 11.2501V19.3751H28.75C28.9158 19.3751 29.0747 19.441 29.1919 19.5582C29.3091 19.6754 29.375 19.8343 29.375 20.0001Z" fill="white"/>
</svg>
