<svg width="40" height="40" viewBox="0 0 40 40" fill="none" xmlns="http://www.w3.org/2000/svg">
<path d="M8.33333 25H13.3333C14.6594 25 15.9312 25.5268 16.8689 26.4645C17.8065 27.4021 18.3333 28.6739 18.3333 30C18.3333 31.3261 17.8065 32.5979 16.8689 33.5355C15.9312 34.4732 14.6594 35 13.3333 35H8.33333V25Z" stroke="white" stroke-linejoin="round"/>
<path d="M8.33333 23.3333V36.6666M3.33333 26.6666H8.33333M3.33333 31.6666H8.33333M18.3333 29.9999H25C25.442 29.9999 25.8659 29.8243 26.1785 29.5118C26.4911 29.1992 26.6667 28.7753 26.6667 28.3333V19.1666M26.6667 3.33325V9.16659M19.0658 6.56575L22.6008 10.1008M19.0658 20.9341L22.6008 17.3991M34.2675 6.56575L30.7333 10.0999M34.2675 20.9341L30.7333 17.3999" stroke="white" stroke-linecap="round" stroke-linejoin="round"/>
<path d="M26.6667 19.1665C29.4281 19.1665 31.6667 16.9279 31.6667 14.1665C31.6667 11.4051 29.4281 9.1665 26.6667 9.1665C23.9052 9.1665 21.6667 11.4051 21.6667 14.1665C21.6667 16.9279 23.9052 19.1665 26.6667 19.1665Z" stroke="white"/>
<path d="M16.6667 14.1665H21.6667M31.6667 14.1665H36.6667" stroke="white" stroke-linecap="round" stroke-linejoin="round"/>
</svg>
