<svg width="40" height="40" viewBox="0 0 40 40" fill="none" xmlns="http://www.w3.org/2000/svg">
<path d="M20 10.625C20.8653 10.625 21.7112 10.3684 22.4306 9.88768C23.1501 9.40695 23.7108 8.72367 24.042 7.92424C24.3731 7.12482 24.4597 6.24515 24.2909 5.39648C24.1221 4.54781 23.7055 3.76826 23.0936 3.15641C22.4817 2.54456 21.7022 2.12788 20.8535 1.95907C20.0049 1.79026 19.1252 1.8769 18.3258 2.20803C17.5263 2.53916 16.8431 3.09992 16.3623 3.81938C15.8816 4.53885 15.625 5.38471 15.625 6.25C15.625 7.41032 16.0859 8.52312 16.9064 9.34359C17.7269 10.1641 18.8397 10.625 20 10.625ZM20 3.125C20.6181 3.125 21.2223 3.30828 21.7362 3.65166C22.2501 3.99504 22.6506 4.4831 22.8871 5.05412C23.1236 5.62514 23.1855 6.25347 23.065 6.85966C22.9444 7.46585 22.6468 8.02267 22.2097 8.45971C21.7727 8.89675 21.2159 9.19438 20.6097 9.31496C20.0035 9.43553 19.3751 9.37365 18.8041 9.13713C18.2331 8.9006 17.745 8.50006 17.4017 7.98616C17.0583 7.47226 16.875 6.86807 16.875 6.25C16.875 5.4212 17.2042 4.62634 17.7903 4.04029C18.3763 3.45424 19.1712 3.125 20 3.125ZM35.5625 13.8391C35.4486 13.279 35.1428 12.7763 34.6977 12.4177C34.2527 12.0591 33.6965 11.8672 33.125 11.875H6.875C6.30565 11.8757 5.7536 12.0708 5.31017 12.4279C4.86673 12.785 4.55848 13.2828 4.4364 13.8389C4.31432 14.3951 4.38572 14.9762 4.63879 15.4862C4.89186 15.9962 5.31144 16.4046 5.82813 16.6438H5.8375L14.2578 20.3516L10.8328 33.3672C10.5714 33.9651 10.5542 34.6416 10.7849 35.2521C11.0155 35.8625 11.4757 36.3586 12.0672 36.6344C12.3976 36.7919 12.7589 36.8741 13.125 36.875C13.5959 36.875 14.0572 36.7419 14.4559 36.4912C14.8545 36.2405 15.1742 35.8823 15.3781 35.4578L20 27.5L24.6219 35.4688C24.9093 36.0535 25.4138 36.503 26.0277 36.7213C26.6417 36.9397 27.3166 36.9097 27.9088 36.6377C28.5009 36.3658 28.9635 35.8734 29.198 35.2654C29.4325 34.6574 29.4203 33.9819 29.1641 33.3828L25.7391 20.3672L34.1766 16.6547C34.7004 16.4215 35.1259 16.0121 35.3791 15.4977C35.6323 14.9833 35.6972 14.3964 35.5625 13.8391ZM33.6547 15.5047L24.7484 19.4281C24.6121 19.488 24.5017 19.5945 24.4369 19.7286C24.3722 19.8626 24.3574 20.0154 24.3953 20.1594L27.9688 33.7406C27.9782 33.7765 27.9908 33.8116 28.0063 33.8453C28.1463 34.1458 28.1612 34.4895 28.0479 34.801C27.9345 35.1125 27.702 35.3662 27.4016 35.5063C27.1011 35.6463 26.7574 35.6612 26.4459 35.5479C26.1344 35.4345 25.8807 35.202 25.7406 34.9016C25.7332 34.8849 25.7249 34.8688 25.7156 34.8531L20.5406 25.9375C20.4857 25.8428 20.4068 25.7642 20.3119 25.7095C20.2171 25.6549 20.1095 25.6261 20 25.6261C19.8905 25.6261 19.7829 25.6549 19.6881 25.7095C19.5932 25.7642 19.5143 25.8428 19.4594 25.9375L14.2844 34.8531C14.2751 34.8688 14.2668 34.8849 14.2594 34.9016C14.1915 35.0527 14.0943 35.1888 13.9734 35.3021C13.8525 35.4153 13.7103 35.5034 13.555 35.5611C13.3998 35.6189 13.2346 35.6453 13.0691 35.6386C12.9035 35.632 12.741 35.5926 12.5908 35.5226C12.4407 35.4526 12.306 35.3534 12.1945 35.2309C12.083 35.1084 11.997 34.9649 11.9414 34.8089C11.8858 34.6528 11.8619 34.4872 11.8708 34.3218C11.8798 34.1564 11.9216 33.9944 11.9938 33.8453C12.0092 33.8116 12.0218 33.7765 12.0313 33.7406L15.6047 20.1563C15.6426 20.0123 15.6278 19.8595 15.5631 19.7255C15.4983 19.5914 15.3879 19.4849 15.2516 19.425L6.34532 15.5047C6.08918 15.3834 5.88187 15.1786 5.75739 14.924C5.63291 14.6694 5.59865 14.38 5.66023 14.1034C5.7218 13.8268 5.87556 13.5793 6.09629 13.4015C6.31701 13.2237 6.59159 13.1262 6.875 13.125H33.125C33.4087 13.1255 33.6837 13.2225 33.905 13.4C34.1263 13.5776 34.2806 13.8251 34.3425 14.1019C34.4045 14.3787 34.3705 14.6684 34.2461 14.9233C34.1216 15.1782 33.9142 15.3833 33.6578 15.5047H33.6547Z" fill="white"/>
</svg>
