<svg width="21" height="21" viewBox="0 0 21 21" fill="none" xmlns="http://www.w3.org/2000/svg">
<path d="M14.7554 10.9961L19.5093 6.24218C20.1655 5.58596 20.1655 4.52143 19.5093 3.86522L17.1323 1.48826C16.4761 0.83204 15.4116 0.83204 14.7554 1.48826L10.0015 6.24218L5.24755 1.48826C4.59133 0.83204 3.5268 0.83204 2.87059 1.48826L0.493627 3.86522C-0.162589 4.52143 -0.162589 5.58596 0.493627 6.24218L5.24755 10.9961L0.49467 15.749C-0.161545 16.4052 -0.161545 17.4697 0.49467 18.1259L2.87163 20.5029C3.52784 21.1591 4.59237 21.1591 5.24859 20.5029L10.0015 15.75L14.7554 20.5039C15.4116 21.1601 16.4761 21.1601 17.1323 20.5039L19.5093 18.127C20.1655 17.4708 20.1655 16.4062 19.5093 15.75L14.7554 10.9961Z" fill="white"/>
</svg>
