<svg width="16" height="16" viewBox="0 0 16 16" fill="none" xmlns="http://www.w3.org/2000/svg">
<path d="M8 16C3.58065 16 0 12.4194 0 8C0 3.58065 3.58065 0 8 0C12.4194 0 16 3.58065 16 8C16 12.4194 12.4194 16 8 16ZM4.32581 8.54839L8.69677 12.9194C9 13.2226 9.49032 13.2226 9.79032 12.9194L10.3387 12.371C10.6419 12.0677 10.6419 11.5774 10.3387 11.2774L7.06129 8L10.3387 4.72258C10.6419 4.41936 10.6419 3.92903 10.3387 3.62903L9.79032 3.08065C9.4871 2.77742 8.99677 2.77742 8.69677 3.08065L4.32581 7.45161C4.02258 7.75484 4.02258 8.24516 4.32581 8.54839Z" fill="#D0D0D0"/>
</svg>
