<svg width="25" height="26" viewBox="0 0 25 26" fill="none" xmlns="http://www.w3.org/2000/svg">
<g clip-path="url(#clip0_214_19087)">
<path d="M21.6797 2.93664C21.0596 2.36535 18.5498 0.544057 12.9541 0.519643C12.9541 0.519643 6.35744 0.124135 3.14455 3.07335C1.35744 4.86046 0.727558 7.48253 0.659198 10.7296C0.590839 13.9767 0.507831 20.0607 6.37209 21.711H6.37697L6.37209 24.2306C6.37209 24.2306 6.33303 25.2511 7.00685 25.4562C7.8174 25.7101 8.29592 24.9337 9.07228 24.0987C9.49709 23.6398 10.083 22.9659 10.5274 22.4532C14.541 22.7902 17.6221 22.0187 17.9737 21.9064C18.7842 21.6427 23.3692 21.0568 24.1113 14.9728C24.8828 8.69347 23.7403 4.72863 21.6797 2.93664ZM22.3584 14.5138C21.7285 19.5919 18.0127 19.9142 17.3291 20.1339C17.0362 20.2267 14.3262 20.9005 10.9229 20.6808C10.9229 20.6808 8.38381 23.7423 7.59279 24.5382C7.334 24.797 7.0508 24.7726 7.05568 24.2599C7.05568 23.923 7.07521 20.0753 7.07521 20.0753C7.07033 20.0753 7.07033 20.0753 7.07521 20.0753C2.10451 18.6984 2.39748 13.5177 2.45119 10.8077C2.5049 8.09777 3.0176 5.87609 4.53127 4.38195C7.251 1.91613 12.8516 2.28234 12.8516 2.28234C17.583 2.30187 19.8487 3.72765 20.376 4.20617C22.1192 5.70031 23.0078 9.27453 22.3584 14.5138ZM15.5713 10.5685C15.5908 10.9884 14.961 11.0177 14.9414 10.5978C14.8877 9.52355 14.3848 9.00109 13.3496 8.94249C12.9297 8.91808 12.9688 8.2882 13.3838 8.31261C14.7461 8.38585 15.5029 9.1671 15.5713 10.5685ZM16.5625 11.1202C16.6113 9.04992 15.3174 7.42882 12.8613 7.24816C12.4463 7.21886 12.4903 6.58898 12.9053 6.61828C15.7373 6.82335 17.2461 8.7716 17.1924 11.1349C17.1875 11.5548 16.5528 11.5353 16.5625 11.1202ZM18.8574 11.7745C18.8623 12.1944 18.2276 12.1993 18.2276 11.7794C18.1983 7.79992 15.5469 5.63195 12.3291 5.60753C11.9141 5.60265 11.9141 4.97765 12.3291 4.97765C15.9278 5.00206 18.8233 7.48742 18.8574 11.7745ZM18.3057 16.5646V16.5743C17.7783 17.5021 16.792 18.5275 15.7764 18.2003L15.7666 18.1857C14.7363 17.8976 12.3096 16.6476 10.7764 15.4269C9.98537 14.8019 9.26271 14.0646 8.70607 13.3566C8.20314 12.7267 7.69533 11.9796 7.20217 11.0812C6.16213 9.20128 5.93264 8.36144 5.93264 8.36144C5.60549 7.34582 6.626 6.35949 7.55861 5.83214H7.56838C8.0176 5.59777 8.44728 5.67589 8.73537 6.02257C8.73537 6.02257 9.34084 6.74523 9.59963 7.10167C9.84377 7.43371 10.1709 7.96593 10.3418 8.26378C10.6397 8.79601 10.4541 9.338 10.1612 9.56261L9.57521 10.0314C9.27736 10.2706 9.31643 10.715 9.31643 10.715C9.31643 10.715 10.1856 14.0011 13.4326 14.8312C13.4326 14.8312 13.877 14.8702 14.1162 14.5724L14.585 13.9864C14.8096 13.6935 15.3516 13.5079 15.8838 13.8058C16.6016 14.211 17.5147 14.8409 18.1201 15.4122C18.4619 15.6905 18.5401 16.1153 18.3057 16.5646Z" fill="black"/>
</g>
<defs>
<clipPath id="clip0_214_19087">
<rect width="25" height="25" fill="white" transform="translate(0 0.5)"/>
</clipPath>
</defs>
</svg>
